<svg xmlns="http://www.w3.org/2000/svg" width="1088" height="1024"><path d="M178.784 1019.744c64.48 0 133.856-32.832 182.624-81.632l540.256-549.408c27.712-27.712 43.136-64.448 43.392-103.392.288-39.04-14.688-75.648-42.112-103.104-56.576-56.544-149.152-56.032-206.784 1.536l-414.112 432.96c-6.496 6.816-6.272 17.664.576 24.192 6.816 6.528 17.6 6.272 24.192-.544L720.64 207.648c43.936-43.968 114.912-44.512 158.112-1.28 20.896 20.896 32.32 48.832 32.096 78.656-.192 29.92-12.064 58.112-33.472 79.552L337.12 914.016c-56.832 56.8-173.632 108.32-243.68 38.208-33.184-33.184-49.824-73.888-48.096-117.728 1.696-43.52 22.176-87.04 57.824-122.656L720.64 85.152c32.832-32.832 84.128-51.84 140.672-52.032h1.024c56.064 0 106.656 18.464 138.944 50.752 32.512 32.48 51.008 83.488 50.784 139.968-.224 56.544-19.232 107.808-52.288 140.864l-476.64 495.52c-6.56 6.816-6.336 17.632.48 24.192 6.784 6.528 17.632 6.336 24.16-.48l476.416-495.296c39.2-39.168 61.824-99.2 62.048-164.672.288-65.504-21.888-125.408-60.768-164.288-38.656-38.656-98.048-60.8-163.136-60.8h-1.152c-65.504.256-125.536 22.88-164.8 62.144L78.88 687.744c-86.432 86.432-90.464 207.84-9.632 288.672 30.304 30.272 68.928 43.328 109.536 43.328z"/></svg>