<svg aria-hidden="true" style="width:0;height:0;position:absolute;overflow:hidden" xmlns="http://www.w3.org/2000/svg"><defs><symbol id="arrow" viewBox="0 0 32 32"><path d="m26.276 12.391-9.333-9.333a1.332 1.332 0 0 0-1.886 0l-9.333 9.333a1.333 1.333 0 0 0 .943 2.276h4V28c0 .736.597 1.333 1.333 1.333h8c.736 0 1.333-.597 1.333-1.333V14.667h4a1.333 1.333 0 0 0 .943-2.276zM20 12c-.736 0-1.333.597-1.333 1.333v13.333h-5.333V13.333c0-.736-.597-1.333-1.333-1.333H9.886l6.115-6.115L22.116 12z"/></symbol></defs></svg>