<svg aria-hidden="true" style="position: absolute; width: 0; height: 0; overflow: hidden;" version="1.1" xmlns="http://www.w3.org/2000/svg" xmlns:xlink="http://www.w3.org/1999/xlink">
<defs>
<symbol id="arrow" viewBox="0 0 32 32">
<path d="M26.276 12.391l-9.333-9.333c-0.241-0.241-0.575-0.39-0.943-0.39s-0.701 0.149-0.943 0.39l-9.333 9.333c-0.241 0.241-0.39 0.575-0.39 0.943 0 0.736 0.597 1.333 1.333 1.333h4v13.333c0 0.736 0.597 1.333 1.333 1.333v0h8c0.736 0 1.333-0.597 1.333-1.333v0-13.333h4c0.736-0 1.333-0.597 1.333-1.333 0-0.368-0.149-0.701-0.39-0.943v0zM20 12c-0.736 0-1.333 0.597-1.333 1.333v0 13.333h-5.333v-13.333c0-0.736-0.597-1.333-1.333-1.333v0h-2.115l6.115-6.115 6.115 6.115z"></path>
</symbol>
</defs>
</svg>
